PathFileType	4	(X/Y/Z)	9_coords_data.trc
DataRate	CameraRate	NumFrames	NumMarkers	Units	OrigDataRate	OrigDataStartFrame	OrigNumFrames
30.0	30.0	7	21	m	30.0	38	47
Frame#	Time	THUMB_TIP	THUMB_IP	THUMB_MCP	THUMB_CMC	INDEX_TIP	INDEX_DIP	INDEX_PIP	INDEX_MCP	MIDDLE_TIP	MIDDLE_DIP	MIDDLE_PIP	MIDDLE_MCP	RING_TIP	RING_DIP	RING_PIP	RING_MCP	PINKY_TIP	PINKY_DIP	PINKY_PIP	PINKY_MCP	WRIST
X1	Y1	Z1	X2	Y2	Z2	X3	Y3	Z3	X4	Y4	Z4	X5	Y5	Z5	X6	Y6	Z6	X7	Y7	Z7	X8	Y8	Z8	X9	Y9	Z9	X10	Y10	Z10	X11	Y11	Z11	X12	Y12	Z12	X13	Y13	Z13	X14	Y14	Z14	X15	Y15	Z15	X16	Y16	Z16	X17	Y17	Z17	X18	Y18	Z18	X19	Y19	Z19	X20	Y20	Z20	X21	Y21	Z21
37	1.2333333333333334	0.0804375	-0.017014400482177734	0.99093798828125	0.058682998657226565	-0.021838499069213868	1.0081300048828126	0.036442401885986325	-0.028976200103759765	1.0260899658203124	0.013079999923706054	-0.0151141996383667	1.040949951171875	0.07701419830322266	-0.02865749931335449	0.9434879760742187	0.057407600402832035	-0.03595849990844727	0.94881201171875	0.03583739852905273	-0.042535099029541015	0.9558369750976563	0.00954463005065918	-0.0441250991821289	0.986447998046875	0.0674906997680664	-0.00826218032836914	0.917676025390625	0.04738779830932617	-0.013691399574279785	0.9288060302734376	0.021393100738525392	-0.01947410011291504	0.9433889770507813	-0.00159862995147705	-0.02342799949645996	0.980531005859375	0.06464849853515625	0.016228000640869142	0.9343729858398437	0.04339059829711914	0.013180500030517578	0.9413400268554688	0.01603109931945801	0.007501920223236084	0.9516279907226562	-0.005846439838409424	-0.0008895069956779482	0.9839429931640625	0.043250701904296876	0.035794498443603516	0.9650230102539062	0.025559799194335937	0.037057899475097654	0.9672789916992187	0.006892730236053466	0.03437960052490235	0.9735609741210938	-0.0073653898239135745	0.021607099533081056	0.9954500122070312	-0.02050979995727539	-0.01213290023803711	1.0646600341796875
38	1.2666666666666666	0.07994419860839844	-0.01787980079650879	0.9908309936523437	0.058118400573730467	-0.02209560012817383	1.0078300170898438	0.035687198638916014	-0.02867900085449219	1.0260400390625	0.012901100158691406	-0.014520400047302246	1.0403299560546875	0.07624859619140625	-0.028190200805664062	0.9433599853515625	0.05667309951782227	-0.03555509948730469	0.9487360229492188	0.035086898803710936	-0.04216299819946289	0.95577001953125	0.008760589599609375	-0.04387590026855469	0.9864910278320312	0.06680249786376953	-0.0076945099830627445	0.9177269897460938	0.04684960174560547	-0.013171299934387207	0.928989013671875	0.020715700149536134	-0.018954500198364258	0.9434420166015625	-0.00209820008277893	-0.023096200942993163	0.980697998046875	0.06430139923095703	0.0168085994720459	0.9349019775390625	0.04298540115356445	0.013675299644470215	0.9417119750976563	0.015599499702453614	0.00802299976348877	0.951864990234375	-0.006694139957427979	-0.0005904740095138551	0.98410498046875	0.04265779876708985	0.036029701232910154	0.9652329711914063	0.024974000930786132	0.037384601593017576	0.9675139770507812	0.00629757022857666	0.03471340179443359	0.9738099975585938	-0.007954840183258056	0.02190959930419922	0.9955020141601563	-0.02123780059814453	-0.011814399719238282	1.0648599853515626
39	1.3	0.07974500274658203	-0.018621599197387696	0.9907999877929687	0.05752899932861328	-0.022234800338745118	1.0076099853515625	0.035332901000976566	-0.028734399795532228	1.0258299560546875	0.012292200088500977	-0.014161499977111816	1.04075	0.07565249633789063	-0.027694299697875978	0.9434390258789063	0.05606829833984375	-0.0350546989440918	0.9487780151367188	0.0344541015625	-0.04169770050048828	0.9557059936523438	0.008025540351867675	-0.04351779937744141	0.986302978515625	0.06642310333251954	-0.0071283397674560545	0.9180150146484375	0.04636920166015625	-0.012577799797058106	0.9290819702148437	0.02019230079650879	-0.01843720054626465	0.943458984375	-0.002856149911880493	-0.022726299285888672	0.9805650024414062	0.06395869827270508	0.01726930046081543	0.9355850219726562	0.042588600158691405	0.014213299751281739	0.9421409912109375	0.01510219955444336	0.008543100357055664	0.9519959716796875	-0.0073231201171875	-0.00020511099696159303	0.984083984375	0.04200040054321289	0.036222801208496094	0.9654769897460938	0.02432200050354004	0.037683998107910156	0.9675349731445313	0.005698860168457031	0.035034900665283204	0.9736270141601563	-0.008630319595336914	0.022304899215698244	0.9955759887695312	-0.02159250068664551	-0.011540399551391602	1.0646600341796875
40	1.3333333333333333	0.07919400024414062	-0.019775400161743163	0.9905560302734375	0.05688240051269531	-0.022786399841308595	1.00772998046875	0.034207599639892575	-0.028475099563598633	1.025949951171875	0.011889300346374511	-0.01391790008544922	1.039949951171875	0.07498179626464843	-0.02706100082397461	0.9435159912109375	0.05539120101928711	-0.03449409866333008	0.948739013671875	0.03370560073852539	-0.04114390182495117	0.9556270141601563	0.007259819984436035	-0.04316659927368164	0.9861480102539063	0.06632230377197265	-0.006325719833374023	0.9186710205078125	0.04615639877319336	-0.011848600387573242	0.9294569702148437	0.01985219955444336	-0.017722900390625	0.9436599731445312	-0.00337059998512268	-0.02222669982910156	0.9805009765625	0.06410749816894531	0.01797690010070801	0.9368690185546875	0.042657100677490234	0.01496560001373291	0.9430250244140626	0.014864299774169922	0.00930696964263916	0.9523569946289062	-0.007879940032958985	0.000272491008043289	0.9841010131835938	0.04136980056762695	0.03653219985961914	0.9656890258789063	0.023720800399780275	0.03799710083007812	0.967718994140625	0.005048309803009033	0.035403900146484375	0.9736220092773438	-0.009307430267333985	0.02273740005493164	0.9956339721679688	-0.022084999084472656	-0.011231800079345704	1.0646400146484376
41	1.3666666666666667	0.07843900299072265	-0.02099440002441406	0.9899810180664063	0.05638570022583008	-0.023392900466918946	1.0073800048828125	0.03373740005493164	-0.028572399139404295	1.02606005859375	0.011417099952697754	-0.013842800140380859	1.0404100341796876	0.07453099822998047	-0.026419300079345703	0.9437169799804688	0.05495800018310547	-0.03385179901123047	0.9488569946289063	0.03318920135498047	-0.04045650100708008	0.9556400146484375	0.006908309936523437	-0.04272969818115235	0.9863049926757812	0.06670330047607421	-0.0053121399879455565	0.9196069946289063	0.046484901428222654	-0.010826600074768067	0.9302050170898437	0.019869899749755858	-0.0168656005859375	0.9440130004882813	-0.003705410003662109	-0.021685800552368163	0.9804429931640625	0.06491130065917969	0.01887299919128418	0.93910400390625	0.04331819915771484	0.015889699935913087	0.9445120239257813	0.015253600120544433	0.010261300086975098	0.9530079956054688	-0.008206350326538086	0.0009012979865074152	0.9841810302734375	0.04117839813232422	0.036947299957275394	0.966677978515625	0.023565799713134765	0.038426101684570314	0.967905029296875	0.0047622199058532716	0.03585290145874023	0.9737689819335937	-0.009653429985046386	0.023303600311279298	0.995739013671875	-0.02231559944152832	-0.010727100372314453	1.0649200439453126
42	1.4	0.07780979919433594	-0.020802999496459963	0.9896599731445312	0.055826900482177734	-0.02323299980163574	1.0073900146484376	0.033779800415039064	-0.02808799934387207	1.025550048828125	0.011047100067138672	-0.013189200401306153	1.0406300048828125	0.07441290283203125	-0.025721799850463866	0.9441380004882812	0.054759300231933594	-0.03308209991455078	0.9490349731445312	0.03297869873046875	-0.03978060150146484	0.9556950073242187	0.006772709846496582	-0.042080898284912106	0.9863070068359375	0.068404296875	-0.004021649837493896	0.9222969970703125	0.04775469970703125	-0.009699959754943848	0.9319769897460938	0.020533000946044922	-0.01583940029144287	0.94464697265625	-0.003924119949340821	-0.021086799621582032	0.980510009765625	0.06617389678955078	0.019598100662231447	0.9414840087890625	0.04423490142822266	0.01668519973754883	0.9460969848632812	0.01589239978790283	0.011103899955749511	0.9538560180664063	-0.008446980476379394	0.001553269982337951	0.9842130126953125	0.041224998474121095	0.03724489974975586	0.9675390014648437	0.023640100479125976	0.03880419921875	0.9683079833984375	0.004674270153045655	0.03631520080566406	0.9739420166015625	-0.009861680030822753	0.02396500015258789	0.9957550048828125	-0.02270319938659668	-0.010229399681091308	1.064969970703125
43	1.4333333333333333	0.07773249816894531	-0.019872400283813478	0.9902130126953125	0.05576689910888672	-0.02242970085144043	1.0071900024414062	0.033706600189208985	-0.02745829963684082	1.025760009765625	0.010801799774169922	-0.012636500358581543	1.0411500244140626	0.07459110260009766	-0.02459779930114746	0.9445499877929687	0.05496929931640625	-0.03200640106201172	0.9493560180664062	0.03321649932861328	-0.03879019927978516	0.9559000244140625	0.006767759799957276	-0.04131829833984375	0.9865969848632813	0.06981909942626953	-0.002537220001220703	0.9246539916992188	0.049011798858642576	-0.008388529777526856	0.9335490112304687	0.021419399261474608	-0.014674099922180175	0.9452979736328125	-0.0039508299827575675	-0.02029759979248047	0.9807559814453125	0.06629460144042969	0.020557300567626953	0.9423619995117187	0.04446950149536133	0.0176471004486084	0.9467239990234375	0.016087699890136718	0.011968299865722657	0.9540789794921875	-0.008430089950561524	0.002351439952850342	0.98452099609375	0.0411952018737793	0.03795080184936524	0.9681439819335937	0.023613300323486328	0.03956129837036133	0.9689970092773438	0.004628870010375976	0.037053398132324215	0.9743419799804688	-0.009994939804077148	0.024707000732421876	0.9960869750976562	-0.023038700103759767	-0.00976844024658203	1.06502001953125
